<svg width="34" height="30" viewBox="0 0 34 30" fill="none" xmlns="http://www.w3.org/2000/svg">
<path fill-rule="evenodd" clip-rule="evenodd" d="M0.871858 10.5882L0.871858 7.05884L1.74365 7.05884L1.74365 10.5882L0.871858 10.5882Z" fill="black"/>
<path fill-rule="evenodd" clip-rule="evenodd" d="M2.61551 14.1176L2.61551 12.3529L3.4873 12.3529L3.4873 14.1176L2.61551 14.1176Z" fill="black"/>
<path fill-rule="evenodd" clip-rule="evenodd" d="M1.74344 12.353L1.74344 10.5883L2.61523 10.5883L2.61523 12.353L1.74344 12.353Z" fill="black"/>
<path fill-rule="evenodd" clip-rule="evenodd" d="M1.74344 7.05877L1.74344 5.29407L2.61523 5.29407L2.61523 7.05877L1.74344 7.05877Z" fill="black"/>
<path fill-rule="evenodd" clip-rule="evenodd" d="M2.61551 5.29412L2.61551 3.52942L3.4873 3.52942L3.4873 5.29412L2.61551 5.29412Z" fill="black"/>
<path fill-rule="evenodd" clip-rule="evenodd" d="M3.48709 3.52945L3.48709 2.64709L4.35889 2.64709L4.35889 3.52945L3.48709 3.52945Z" fill="black"/>
<path fill-rule="evenodd" clip-rule="evenodd" d="M4.35874 1.76474L6.97412 1.76474V2.64709L4.35874 2.64709V1.76474Z" fill="black"/>
<path fill-rule="evenodd" clip-rule="evenodd" d="M6.97425 0.882418L10.4614 0.882418V1.76477L6.97425 1.76477V0.882418Z" fill="black"/>
<path fill-rule="evenodd" clip-rule="evenodd" d="M10.4615 1.76474L12.2051 1.76474V2.64709H10.4615V1.76474Z" fill="black"/>
<path fill-rule="evenodd" clip-rule="evenodd" d="M12.2054 2.64707H13.0771V3.52942H12.2054V2.64707Z" fill="black"/>
<path fill-rule="evenodd" clip-rule="evenodd" d="M13.0769 3.52939H13.9487V4.41174H13.0769V3.52939Z" fill="black"/>
<path fill-rule="evenodd" clip-rule="evenodd" d="M13.9485 4.41171H14.8203V5.29407H13.9485V4.41171Z" fill="black"/>
<path fill-rule="evenodd" clip-rule="evenodd" d="M14.8206 7.94113L14.8206 5.29407L15.6924 5.29407L15.6924 7.94113L14.8206 7.94113Z" fill="black"/>
<path fill-rule="evenodd" clip-rule="evenodd" d="M15.6922 9.70587L15.6922 7.94116L16.564 7.94116L16.564 9.70587L15.6922 9.70587Z" fill="black"/>
<path fill-rule="evenodd" clip-rule="evenodd" d="M14.8206 10.5883L14.8206 9.70593L15.6924 9.70593L15.6924 10.5883L14.8206 10.5883Z" fill="black"/>
<path fill-rule="evenodd" clip-rule="evenodd" d="M13.9485 11.4706L13.9485 10.5883L14.8203 10.5883L14.8203 11.4706L13.9485 11.4706Z" fill="black"/>
<path fill-rule="evenodd" clip-rule="evenodd" d="M14.8206 12.3529L14.8206 11.4706L15.6924 11.4706L15.6924 12.3529L14.8206 12.3529Z" fill="black"/>
<path fill-rule="evenodd" clip-rule="evenodd" d="M15.6922 13.2353L15.6922 12.3529L16.564 12.3529L16.564 13.2353L15.6922 13.2353Z" fill="black"/>
<path fill-rule="evenodd" clip-rule="evenodd" d="M16.5642 14.1177L16.5642 13.2354L17.436 13.2354L17.436 14.1177L16.5642 14.1177Z" fill="black"/>
<path fill-rule="evenodd" clip-rule="evenodd" d="M15.6922 15L15.6922 14.1177L16.564 14.1177L16.564 15L15.6922 15Z" fill="black"/>
<path fill-rule="evenodd" clip-rule="evenodd" d="M14.8206 15.8824L14.8206 15L15.6924 15L15.6924 15.8824L14.8206 15.8824Z" fill="black"/>
<path fill-rule="evenodd" clip-rule="evenodd" d="M13.9485 16.7647L13.9485 15.8823L14.8203 15.8823L14.8203 16.7647L13.9485 16.7647Z" fill="black"/>
<path fill-rule="evenodd" clip-rule="evenodd" d="M14.8206 17.647L14.8206 16.7646L15.6924 16.7646L15.6924 17.647L14.8206 17.647Z" fill="black"/>
<path fill-rule="evenodd" clip-rule="evenodd" d="M14.8206 23.8235L14.8206 22.9412L15.6924 22.9412L15.6924 23.8235L14.8206 23.8235Z" fill="black"/>
<path fill-rule="evenodd" clip-rule="evenodd" d="M13.9485 22.9412L13.9485 22.0588L14.8203 22.0588L14.8203 22.9412L13.9485 22.9412Z" fill="black"/>
<path fill-rule="evenodd" clip-rule="evenodd" d="M13.0769 22.0589L13.0769 21.1765L13.9487 21.1765L13.9487 22.0589L13.0769 22.0589Z" fill="black"/>
<path fill-rule="evenodd" clip-rule="evenodd" d="M13.0771 21.1765L11.3335 21.1765L11.3335 20.2942L13.0771 20.2942L13.0771 21.1765Z" fill="black"/>
<path fill-rule="evenodd" clip-rule="evenodd" d="M11.3332 20.2941L10.4614 20.2941L10.4614 19.4117L11.3332 19.4117L11.3332 20.2941Z" fill="black"/>
<path fill-rule="evenodd" clip-rule="evenodd" d="M11.3332 20.2941L10.4614 20.2941L10.4614 19.4117L11.3332 19.4117L11.3332 20.2941Z" fill="black"/>
<path fill-rule="evenodd" clip-rule="evenodd" d="M8.71799 18.5294L7.84619 18.5294L7.84619 17.6471L8.71799 17.6471L8.71799 18.5294Z" fill="black"/>
<path fill-rule="evenodd" clip-rule="evenodd" d="M6.10275 16.7647L5.23096 16.7647L5.23096 15.8823L6.10275 15.8823L6.10275 16.7647Z" fill="black"/>
<path fill-rule="evenodd" clip-rule="evenodd" d="M5.23068 15.8824L4.35889 15.8824L4.35889 15L5.23068 15L5.23068 15.8824Z" fill="black"/>
<path fill-rule="evenodd" clip-rule="evenodd" d="M4.3591 15L3.4873 15L3.4873 14.1177L4.3591 14.1177L4.3591 15Z" fill="black"/>
<path fill-rule="evenodd" clip-rule="evenodd" d="M10.4614 19.4118L8.71777 19.4118L8.71777 18.5294L10.4614 18.5294L10.4614 19.4118Z" fill="black"/>
<path fill-rule="evenodd" clip-rule="evenodd" d="M7.84613 17.647L6.10254 17.647L6.10254 16.7646L7.84613 16.7646L7.84613 17.647Z" fill="black"/>
<path fill-rule="evenodd" clip-rule="evenodd" d="M15.6922 24.7059V17.6471H16.564V24.7059H15.6922Z" fill="black"/>
<path fill-rule="evenodd" clip-rule="evenodd" d="M19.1795 12.353L19.1795 9.70593L20.0513 9.70593L20.0513 12.353L19.1795 12.353Z" fill="black"/>
<path fill-rule="evenodd" clip-rule="evenodd" d="M18.3079 14.1176L18.3079 12.3529L19.1797 12.3529L19.1797 14.1176L18.3079 14.1176Z" fill="black"/>
<path fill-rule="evenodd" clip-rule="evenodd" d="M20.0515 15L20.0515 14.1177L19.1797 14.1177L19.1797 15L20.0515 15Z" fill="black"/>
<path fill-rule="evenodd" clip-rule="evenodd" d="M20.9231 15.8824L20.9231 15L20.0513 15L20.0513 15.8824L20.9231 15.8824Z" fill="black"/>
<path fill-rule="evenodd" clip-rule="evenodd" d="M20.0515 16.7647L20.0515 15.8823L19.1797 15.8823L19.1797 16.7647L20.0515 16.7647Z" fill="black"/>
<path fill-rule="evenodd" clip-rule="evenodd" d="M19.1794 17.647L19.1794 16.7646L18.3076 16.7646L18.3076 17.647L19.1794 17.647Z" fill="black"/>
<path fill-rule="evenodd" clip-rule="evenodd" d="M17.4358 19.4118L17.4358 17.6471L18.3076 17.6471L18.3076 19.4118L17.4358 19.4118Z" fill="black"/>
<path fill-rule="evenodd" clip-rule="evenodd" d="M19.1794 20.2941L19.1794 19.4117L18.3076 19.4117L18.3076 20.2941L19.1794 20.2941Z" fill="black"/>
<path fill-rule="evenodd" clip-rule="evenodd" d="M20.0515 21.1765L20.0515 20.2942L19.1797 20.2942L19.1797 21.1765L20.0515 21.1765Z" fill="black"/>
<path fill-rule="evenodd" clip-rule="evenodd" d="M20.9231 22.0589L20.9231 21.1765L20.0513 21.1765L20.0513 22.0589L20.9231 22.0589Z" fill="black"/>
<path fill-rule="evenodd" clip-rule="evenodd" d="M20.0515 22.9412L20.0515 22.0588L19.1797 22.0588L19.1797 22.9412L20.0515 22.9412Z" fill="black"/>
<path fill-rule="evenodd" clip-rule="evenodd" d="M18.3079 29.1176L18.3079 22.9412L19.1797 22.9412L19.1797 29.1176L18.3079 29.1176Z" fill="black"/>
<path fill-rule="evenodd" clip-rule="evenodd" d="M20.9233 28.2354L19.1797 28.2354L19.1797 27.353L20.9233 27.353L20.9233 28.2354Z" fill="black"/>
<path fill-rule="evenodd" clip-rule="evenodd" d="M20.9231 27.3529L20.9231 26.4706L21.7949 26.4706L21.7949 27.3529L20.9231 27.3529Z" fill="black"/>
<path fill-rule="evenodd" clip-rule="evenodd" d="M23.5385 26.4706L21.7949 26.4706L21.7949 25.5883L23.5385 25.5883L23.5385 26.4706Z" fill="black"/>
<path fill-rule="evenodd" clip-rule="evenodd" d="M23.5384 25.5883L23.5384 24.7059L24.4102 24.7059L24.4102 25.5883L23.5384 25.5883Z" fill="black"/>
<path fill-rule="evenodd" clip-rule="evenodd" d="M25.282 24.7058L24.4102 24.7058L24.4102 23.8235L25.282 23.8235L25.282 24.7058Z" fill="black"/>
<path fill-rule="evenodd" clip-rule="evenodd" d="M27.0258 23.8235L25.2822 23.8235L25.2822 22.9412L27.0258 22.9412L27.0258 23.8235Z" fill="black"/>
<path fill-rule="evenodd" clip-rule="evenodd" d="M27.8972 22.9412L27.0254 22.9412L27.0254 22.0588L27.8972 22.0588L27.8972 22.9412Z" fill="black"/>
<path fill-rule="evenodd" clip-rule="evenodd" d="M29.6411 22.0589H27.8975V21.1765H29.6411V22.0589Z" fill="black"/>
<path fill-rule="evenodd" clip-rule="evenodd" d="M30.5129 21.1765L29.6411 21.1765L29.6411 20.2942L30.5129 20.2942L30.5129 21.1765Z" fill="black"/>
<path fill-rule="evenodd" clip-rule="evenodd" d="M30.513 20.2941L30.513 18.5294L31.3848 18.5294L31.3848 20.2941L30.513 20.2941Z" fill="black"/>
<path fill-rule="evenodd" clip-rule="evenodd" d="M32.2566 16.7647L32.2566 12.3529L33.1284 12.3529L33.1284 16.7647L32.2566 16.7647Z" fill="black"/>
<path fill-rule="evenodd" clip-rule="evenodd" d="M31.3846 12.353L31.3846 9.70593L32.2563 9.70593L32.2563 12.353L31.3846 12.353Z" fill="black"/>
<path fill-rule="evenodd" clip-rule="evenodd" d="M30.513 9.70587L30.513 7.94116L31.3848 7.94116L31.3848 9.70587L30.513 9.70587Z" fill="black"/>
<path fill-rule="evenodd" clip-rule="evenodd" d="M29.6409 7.94119L29.6409 7.05884L30.5127 7.05884L30.5127 7.94119L29.6409 7.94119Z" fill="black"/>
<path fill-rule="evenodd" clip-rule="evenodd" d="M29.6411 7.05887L27.8975 7.05887L27.8975 6.17651L29.6411 6.17651L29.6411 7.05887Z" fill="black"/>
<path fill-rule="evenodd" clip-rule="evenodd" d="M27.8976 6.17642L25.2822 6.17642L25.2822 5.29407L27.8976 5.29407L27.8976 6.17642Z" fill="black"/>
<path fill-rule="evenodd" clip-rule="evenodd" d="M25.2819 7.05887L22.6665 7.05887L22.6665 6.17651L25.2819 6.17651L25.2819 7.05887Z" fill="black"/>
<path fill-rule="evenodd" clip-rule="evenodd" d="M22.6667 7.94119L21.7949 7.94119L21.7949 7.05884L22.6667 7.05884L22.6667 7.94119Z" fill="black"/>
<path fill-rule="evenodd" clip-rule="evenodd" d="M21.7946 8.82351L20.9229 8.82351L20.9229 7.94116L21.7946 7.94116L21.7946 8.82351Z" fill="black"/>
<path fill-rule="evenodd" clip-rule="evenodd" d="M20.9231 9.70584L20.0513 9.70584L20.0513 8.82349L20.9231 8.82349L20.9231 9.70584Z" fill="black"/>
<path fill-rule="evenodd" clip-rule="evenodd" d="M31.3846 18.5294L31.3846 16.7646L32.2563 16.7646L32.2563 18.5294L31.3846 18.5294Z" fill="black"/>
<path d="M10.4616 1.76477H6.97442V2.64712H4.35904V3.52948H3.48724V5.29418H2.61545V7.05889H1.74365V10.5883H2.61545V12.353H3.48724V14.1177H4.35904V15.0001H5.23083V15.8824H6.10263V16.7648H7.84622V17.6471H8.71801V18.5295H10.4616V19.4118H11.3334V20.2942H13.077V21.1765H13.9488V22.0589H14.8206V22.9412H15.6924V17.6471H14.8206V16.7648H13.9488V15.8824H14.8206V15.0001H15.6924V14.1177H16.5642V13.2354H15.6924V12.353H14.8206V11.4707H13.9488V10.5883H14.8206V9.70595H15.6924V7.94124H14.8206V5.29418H13.9488V4.41183H13.077V3.52948H12.2052V2.64712H10.4616V1.76477Z" fill="#FF80B5"/>
<path d="M15.6921 22.9412V17.6471H8.71777V18.5294H10.4614V19.4118H11.3332V20.2942H13.0767V21.1765H13.9485V22.0589H14.8203V22.9412H15.6921Z" fill="#F33283"/>
<path d="M27.8974 6.17651H25.282V7.05887H22.6666V7.94122H21.7948V8.82357H20.923V9.70593H20.0512V12.353H19.1794V14.1177H20.0512V15H20.923V15.8824H20.0512V16.7647H19.1794V17.6471H18.3076V19.4118H19.1794V20.2942H20.0512V21.1765H20.923V22.0589H20.0512V22.9412H19.1794V27.353H20.0512H20.923V26.4706H21.7948V25.5883H23.5384V24.7059H24.4102V23.8236H25.282V22.9412H27.0256V22.0589H27.8974V21.1765H29.641V20.2942H30.5127V18.5295H31.3845V16.7647H32.2563V12.353H31.3845V9.70593H30.5127V7.94122H29.641V7.05887H27.8974V6.17651Z" fill="#FF80B5"/>
<path d="M25.2823 23.8235V22.9412H19.1797V27.3529H20.0515H20.9233V26.4706H21.7951V25.5882H23.5387V24.7059H24.4105V23.8235H25.2823Z" fill="#F33283"/>
<path fill-rule="evenodd" clip-rule="evenodd" d="M-0.000212941 10.5882L-0.000212789 7.05884L0.871582 7.05884L0.871582 10.5882L-0.000212941 10.5882Z" fill="white"/>
<path fill-rule="evenodd" clip-rule="evenodd" d="M0.871858 7.05877L0.871858 5.29407L1.74365 5.29407L1.74365 7.05877L0.871858 7.05877Z" fill="white"/>
<path fill-rule="evenodd" clip-rule="evenodd" d="M1.74344 5.29412L1.74344 3.52942L2.61523 3.52942L2.61523 5.29412L1.74344 5.29412Z" fill="white"/>
<path fill-rule="evenodd" clip-rule="evenodd" d="M2.61551 3.52945L2.61551 2.64709L3.4873 2.64709L3.4873 3.52945L2.61551 3.52945Z" fill="white"/>
<path fill-rule="evenodd" clip-rule="evenodd" d="M3.48709 2.64712L3.48709 1.76477L4.35889 1.76477L4.35889 2.64712L3.48709 2.64712Z" fill="white"/>
<path fill-rule="evenodd" clip-rule="evenodd" d="M6.97427 1.76468L4.35889 1.76468L4.35889 0.882324L6.97427 0.882325L6.97427 1.76468Z" fill="white"/>
<path fill-rule="evenodd" clip-rule="evenodd" d="M10.4613 0.882354L6.97412 0.882353L6.97412 0L10.4613 6.17102e-07L10.4613 0.882354Z" fill="white"/>
<path fill-rule="evenodd" clip-rule="evenodd" d="M12.205 1.76468L10.4614 1.76468L10.4614 0.882324L12.205 0.882325L12.205 1.76468Z" fill="white"/>
<path fill-rule="evenodd" clip-rule="evenodd" d="M13.0769 2.64712L12.2051 2.64712L12.2051 1.76477L13.0769 1.76477L13.0769 2.64712Z" fill="white"/>
<path fill-rule="evenodd" clip-rule="evenodd" d="M13.9489 3.52945L13.0771 3.52945L13.0771 2.64709L13.9489 2.64709L13.9489 3.52945Z" fill="white"/>
<path fill-rule="evenodd" clip-rule="evenodd" d="M14.8205 4.41177L13.9487 4.41177L13.9487 3.52942L14.8205 3.52942L14.8205 4.41177Z" fill="white"/>
<path fill-rule="evenodd" clip-rule="evenodd" d="M15.6921 5.2941L14.8203 5.2941L14.8203 4.41174L15.6921 4.41174L15.6921 5.2941Z" fill="white"/>
<path fill-rule="evenodd" clip-rule="evenodd" d="M15.6922 7.94113L15.6922 5.29407L16.564 5.29407L16.564 7.94113L15.6922 7.94113Z" fill="white"/>
<path fill-rule="evenodd" clip-rule="evenodd" d="M16.5642 9.70587L16.5642 7.94116L17.436 7.94116L17.436 9.70587L16.5642 9.70587Z" fill="white"/>
<path fill-rule="evenodd" clip-rule="evenodd" d="M15.6922 10.5883L15.6922 9.70593L16.564 9.70593L16.564 10.5883L15.6922 10.5883Z" fill="white"/>
<path fill-rule="evenodd" clip-rule="evenodd" d="M14.8206 11.4706L14.8206 10.5883L15.6924 10.5883L15.6924 11.4706L14.8206 11.4706Z" fill="white"/>
<path fill-rule="evenodd" clip-rule="evenodd" d="M15.6922 12.3529L15.6922 11.4706L16.564 11.4706L16.564 12.3529L15.6922 12.3529Z" fill="white"/>
<path fill-rule="evenodd" clip-rule="evenodd" d="M16.5642 13.2353L16.5642 12.3529L17.436 12.3529L17.436 13.2353L16.5642 13.2353Z" fill="white"/>
<path fill-rule="evenodd" clip-rule="evenodd" d="M17.4358 14.1177L17.4358 13.2354L18.3076 13.2354L18.3076 14.1177L17.4358 14.1177Z" fill="white"/>
<path fill-rule="evenodd" clip-rule="evenodd" d="M16.5642 15L16.5642 14.1177L17.436 14.1177L17.436 15L16.5642 15Z" fill="white"/>
<path fill-rule="evenodd" clip-rule="evenodd" d="M15.6922 15.8824L15.6922 15L16.564 15L16.564 15.8824L15.6922 15.8824Z" fill="white"/>
<path fill-rule="evenodd" clip-rule="evenodd" d="M14.8206 16.7647L14.8206 15.8823L15.6924 15.8823L15.6924 16.7647L14.8206 16.7647Z" fill="white"/>
<path fill-rule="evenodd" clip-rule="evenodd" d="M15.6922 17.647L15.6922 16.7646L16.564 16.7646L16.564 17.647L15.6922 17.647Z" fill="white"/>
<path fill-rule="evenodd" clip-rule="evenodd" d="M17.4358 17.647L17.4358 16.7646L18.3076 16.7646L18.3076 17.647L17.4358 17.647Z" fill="white"/>
<path fill-rule="evenodd" clip-rule="evenodd" d="M18.3079 16.7647L18.3079 15.8823L19.1797 15.8823L19.1797 16.7647L18.3079 16.7647Z" fill="white"/>
<path fill-rule="evenodd" clip-rule="evenodd" d="M19.1795 15.8824L19.1795 15L20.0513 15L20.0513 15.8824L19.1795 15.8824Z" fill="white"/>
<path fill-rule="evenodd" clip-rule="evenodd" d="M18.3079 15L18.3079 14.1177L19.1797 14.1177L19.1797 15L18.3079 15Z" fill="white"/>
<path fill-rule="evenodd" clip-rule="evenodd" d="M19.1795 9.70584L19.1795 8.82349L20.0513 8.82349L20.0513 9.70584L19.1795 9.70584Z" fill="white"/>
<path fill-rule="evenodd" clip-rule="evenodd" d="M20.0511 8.82351L20.0511 7.94116L20.9229 7.94116L20.9229 8.82351L20.0511 8.82351Z" fill="white"/>
<path fill-rule="evenodd" clip-rule="evenodd" d="M20.9231 7.94119L20.9231 7.05884L21.7949 7.05884L21.7949 7.94119L20.9231 7.94119Z" fill="white"/>
<path fill-rule="evenodd" clip-rule="evenodd" d="M21.7947 7.05887L21.7947 6.17651L22.6665 6.17651L22.6665 7.05887L21.7947 7.05887Z" fill="white"/>
<path fill-rule="evenodd" clip-rule="evenodd" d="M25.2819 6.17642L22.6665 6.17642L22.6665 5.29407L25.2819 5.29407L25.2819 6.17642Z" fill="white"/>
<path fill-rule="evenodd" clip-rule="evenodd" d="M27.8976 5.2941L25.2822 5.2941L25.2822 4.41174L27.8976 4.41174L27.8976 5.2941Z" fill="white"/>
<path fill-rule="evenodd" clip-rule="evenodd" d="M29.6411 6.17642L27.8975 6.17642L27.8975 5.29407L29.6411 5.29407L29.6411 6.17642Z" fill="white"/>
<path fill-rule="evenodd" clip-rule="evenodd" d="M30.5129 7.05887L29.6411 7.05887L29.6411 6.17651L30.5129 6.17651L30.5129 7.05887Z" fill="white"/>
<path fill-rule="evenodd" clip-rule="evenodd" d="M31.3845 7.94119L30.5127 7.94119L30.5127 7.05884L31.3845 7.05884L31.3845 7.94119Z" fill="white"/>
<path fill-rule="evenodd" clip-rule="evenodd" d="M31.3846 9.70587L31.3846 7.94116L32.2563 7.94116L32.2563 9.70587L31.3846 9.70587Z" fill="white"/>
<path fill-rule="evenodd" clip-rule="evenodd" d="M32.2566 12.353L32.2566 9.70593L33.1284 9.70593L33.1284 12.353L32.2566 12.353Z" fill="white"/>
<path fill-rule="evenodd" clip-rule="evenodd" d="M27.8972 9.70584L27.0254 9.70584L27.0254 8.82349L27.8972 8.82349L27.8972 9.70584Z" fill="white"/>
<path fill-rule="evenodd" clip-rule="evenodd" d="M27.8972 11.4706L27.8972 9.70593L28.769 9.70593L28.769 11.4706L27.8972 11.4706Z" fill="white"/>
<path fill-rule="evenodd" clip-rule="evenodd" d="M33.1282 16.7647L33.1282 12.3529L34 12.3529L34 16.7647L33.1282 16.7647Z" fill="white"/>
<path fill-rule="evenodd" clip-rule="evenodd" d="M32.2566 18.5294L32.2566 16.7646L33.1284 16.7646L33.1284 18.5294L32.2566 18.5294Z" fill="white"/>
<path fill-rule="evenodd" clip-rule="evenodd" d="M31.3846 20.2941L31.3846 18.5294L32.2563 18.5294L32.2563 20.2941L31.3846 20.2941Z" fill="white"/>
<path fill-rule="evenodd" clip-rule="evenodd" d="M30.513 21.1765L30.513 20.2942L31.3848 20.2942L31.3848 21.1765L30.513 21.1765Z" fill="white"/>
<path fill-rule="evenodd" clip-rule="evenodd" d="M29.6409 22.0589L29.6409 21.1765L30.5127 21.1765L30.5127 22.0589L29.6409 22.0589Z" fill="white"/>
<path fill-rule="evenodd" clip-rule="evenodd" d="M27.0257 23.8235L27.0257 22.9412L27.8975 22.9412L27.8975 23.8235L27.0257 23.8235Z" fill="white"/>
<path fill-rule="evenodd" clip-rule="evenodd" d="M24.4104 25.5883L24.4104 24.7059L25.2822 24.7059L25.2822 25.5883L24.4104 25.5883Z" fill="white"/>
<path fill-rule="evenodd" clip-rule="evenodd" d="M23.5384 26.4706L23.5384 25.5883L24.4102 25.5883L24.4102 26.4706L23.5384 26.4706Z" fill="white"/>
<path fill-rule="evenodd" clip-rule="evenodd" d="M20.9231 28.2354L20.9231 27.353L21.7949 27.353L21.7949 28.2354L20.9231 28.2354Z" fill="white"/>
<path fill-rule="evenodd" clip-rule="evenodd" d="M18.3079 22.9412L18.3079 22.0588L19.1797 22.0588L19.1797 22.9412L18.3079 22.9412Z" fill="white"/>
<path fill-rule="evenodd" clip-rule="evenodd" d="M19.1795 22.0589L19.1795 21.1765L20.0513 21.1765L20.0513 22.0589L19.1795 22.0589Z" fill="white"/>
<path fill-rule="evenodd" clip-rule="evenodd" d="M18.3079 21.1765L18.3079 20.2942L19.1797 20.2942L19.1797 21.1765L18.3079 21.1765Z" fill="white"/>
<path fill-rule="evenodd" clip-rule="evenodd" d="M17.4358 20.2941L17.4358 19.4117L18.3076 19.4117L18.3076 20.2941L17.4358 20.2941Z" fill="white"/>
<path fill-rule="evenodd" clip-rule="evenodd" d="M20.9233 29.1177L19.1797 29.1177L19.1797 28.2354L20.9233 28.2354L20.9233 29.1177Z" fill="white"/>
<path fill-rule="evenodd" clip-rule="evenodd" d="M18.3079 30L18.3079 29.1177L19.1797 29.1177L19.1797 30L18.3079 30Z" fill="white"/>
<path fill-rule="evenodd" clip-rule="evenodd" d="M27.8975 22.0588L29.6411 22.0588L29.6411 22.9412L27.8975 22.9412L27.8975 22.0588Z" fill="white"/>
<path fill-rule="evenodd" clip-rule="evenodd" d="M25.2818 23.8236L27.0254 23.8236L27.0254 24.7059L25.2818 24.7059L25.2818 23.8236Z" fill="white"/>
<path fill-rule="evenodd" clip-rule="evenodd" d="M21.795 26.4707L23.5386 26.4707L23.5386 27.353L21.795 27.353L21.795 26.4707Z" fill="white"/>
<path fill-rule="evenodd" clip-rule="evenodd" d="M17.4358 13.2353L17.4358 12.3529L18.3076 12.3529L18.3076 13.2353L17.4358 13.2353Z" fill="white"/>
<path fill-rule="evenodd" clip-rule="evenodd" d="M18.3079 12.353L18.3079 9.70593L19.1797 9.70593L19.1797 12.353L18.3079 12.353Z" fill="white"/>
<path fill-rule="evenodd" clip-rule="evenodd" d="M0.871857 12.353L0.871858 10.5883L1.74365 10.5883L1.74365 12.353L0.871857 12.353Z" fill="white"/>
<path fill-rule="evenodd" clip-rule="evenodd" d="M1.74344 14.1176L1.74344 12.3529L2.61523 12.3529L2.61523 14.1176L1.74344 14.1176Z" fill="white"/>
<path fill-rule="evenodd" clip-rule="evenodd" d="M2.61551 15L2.61551 14.1177L3.4873 14.1177L3.4873 15L2.61551 15Z" fill="white"/>
<path fill-rule="evenodd" clip-rule="evenodd" d="M3.48709 15.8824L3.48709 15L4.35889 15L4.35889 15.8824L3.48709 15.8824Z" fill="white"/>
<path fill-rule="evenodd" clip-rule="evenodd" d="M4.35916 16.7647L4.35916 15.8823L5.23096 15.8823L5.23096 16.7647L4.35916 16.7647Z" fill="white"/>
<path fill-rule="evenodd" clip-rule="evenodd" d="M5.23074 17.647L5.23074 16.7646L6.10254 16.7646L6.10254 17.647L5.23074 17.647Z" fill="white"/>
<path fill-rule="evenodd" clip-rule="evenodd" d="M7.84598 19.4118L7.84598 18.5294L8.71777 18.5294L8.71777 19.4118L7.84598 19.4118Z" fill="white"/>
<path fill-rule="evenodd" clip-rule="evenodd" d="M10.4617 21.1765L10.4617 20.2942L11.3335 20.2942L11.3335 21.1765L10.4617 21.1765Z" fill="white"/>
<path fill-rule="evenodd" clip-rule="evenodd" d="M13.0769 22.9412L13.0769 22.0588L13.9487 22.0588L13.9487 22.9412L13.0769 22.9412Z" fill="white"/>
<path fill-rule="evenodd" clip-rule="evenodd" d="M13.9485 23.8235L13.9485 22.9412L14.8203 22.9412L14.8203 23.8235L13.9485 23.8235Z" fill="white"/>
<path fill-rule="evenodd" clip-rule="evenodd" d="M14.8206 24.7058L14.8206 23.8235L15.6924 23.8235L15.6924 24.7058L14.8206 24.7058Z" fill="white"/>
<path fill-rule="evenodd" clip-rule="evenodd" d="M15.6922 25.5883L15.6922 24.7059L16.564 24.7059L16.564 25.5883L15.6922 25.5883Z" fill="white"/>
<path fill-rule="evenodd" clip-rule="evenodd" d="M16.5642 24.7059L16.5642 17.6471L17.436 17.6471L17.436 24.7059L16.5642 24.7059Z" fill="white"/>
<path fill-rule="evenodd" clip-rule="evenodd" d="M17.4358 29.1176L17.4358 22.9412L18.3076 22.9412L18.3076 29.1176L17.4358 29.1176Z" fill="white"/>
<path fill-rule="evenodd" clip-rule="evenodd" d="M7.84613 18.5294H6.10254V17.6471H7.84613V18.5294Z" fill="white"/>
<path fill-rule="evenodd" clip-rule="evenodd" d="M10.4614 20.2941H8.71777V19.4117H10.4614V20.2941Z" fill="white"/>
<path fill-rule="evenodd" clip-rule="evenodd" d="M13.0771 22.0589H11.3335V21.1765H13.0771V22.0589Z" fill="white"/>
<path fill-rule="evenodd" clip-rule="evenodd" d="M26.154 22.9412H23.5386V22.0588H26.154V22.9412Z" fill="#F33283"/>
<path fill-rule="evenodd" clip-rule="evenodd" d="M23.5385 22.0589H21.7949V21.1765H23.5385V22.0589Z" fill="#F33283"/>
<path fill-rule="evenodd" clip-rule="evenodd" d="M27.8974 22.0589H26.1538V21.1765H27.8974V22.0589Z" fill="#F33283"/>
<path fill-rule="evenodd" clip-rule="evenodd" d="M25.282 22.0589H24.4102V21.1765H25.282V22.0589Z" fill="#F33283"/>
<path fill-rule="evenodd" clip-rule="evenodd" d="M24.4104 21.1765H23.5386V20.2942H24.4104V21.1765Z" fill="#F33283"/>
<path fill-rule="evenodd" clip-rule="evenodd" d="M21.7946 23.8235H20.9229V22.9412H21.7946V23.8235Z" fill="#FF80B5"/>
<path fill-rule="evenodd" clip-rule="evenodd" d="M23.5383 24.7058H22.6665V23.8235H23.5383V24.7058Z" fill="#FF80B5"/>
<path fill-rule="evenodd" clip-rule="evenodd" d="M20.0515 24.7058H19.1797V23.8235H20.0515V24.7058Z" fill="#FF80B5"/>
<path fill-rule="evenodd" clip-rule="evenodd" d="M21.7946 20.2941H20.9229V19.4117H21.7946V20.2941Z" fill="#F33283"/>
<path fill-rule="evenodd" clip-rule="evenodd" d="M29.6408 20.2941H28.769V19.4117H29.6408V20.2941Z" fill="#F33283"/>
<path fill-rule="evenodd" clip-rule="evenodd" d="M27.8972 18.5294H27.0254V17.6471H27.8972V18.5294Z" fill="#F33283"/>
<path fill-rule="evenodd" clip-rule="evenodd" d="M27.8972 21.1765H27.0254V20.2942H27.8972V21.1765Z" fill="#F33283"/>
<path fill-rule="evenodd" clip-rule="evenodd" d="M26.154 20.2941H25.2822V19.4117H26.154V20.2941Z" fill="#F33283"/>
<path fill-rule="evenodd" clip-rule="evenodd" d="M22.6667 22.9412H20.0513V22.0588H22.6667V22.9412Z" fill="#F33283"/>
<path fill-rule="evenodd" clip-rule="evenodd" d="M27.8976 7.05887L25.2822 7.05887L25.2822 6.17651L27.8976 6.17651L27.8976 7.05887Z" fill="#FFACD6"/>
<path fill-rule="evenodd" clip-rule="evenodd" d="M25.2819 7.94119L22.6665 7.94119L22.6665 7.05884L25.2819 7.05884L25.2819 7.94119Z" fill="#FFACD6"/>
<path fill-rule="evenodd" clip-rule="evenodd" d="M10.4613 2.64712L6.97412 2.64712L6.97412 1.76477L10.4613 1.76477L10.4613 2.64712Z" fill="#FFACD6"/>
<path fill-rule="evenodd" clip-rule="evenodd" d="M6.10248 3.52945L4.35889 3.52945L4.35889 2.64709L6.10248 2.64709L6.10248 3.52945Z" fill="#FFACD6"/>
<path fill-rule="evenodd" clip-rule="evenodd" d="M10.4613 3.52945L6.97412 3.52945L6.97412 2.64709L10.4613 2.64709L10.4613 3.52945Z" fill="#FFACD6"/>
<path fill-rule="evenodd" clip-rule="evenodd" d="M12.2053 3.52945L11.3335 3.52945L11.3335 2.64709L12.2053 2.64709L12.2053 3.52945Z" fill="#FFACD6"/>
<path fill-rule="evenodd" clip-rule="evenodd" d="M11.3332 4.41177L10.4614 4.41177L10.4614 3.52942L11.3332 3.52942L11.3332 4.41177Z" fill="#FFACD6"/>
<path fill-rule="evenodd" clip-rule="evenodd" d="M7.84613 4.41177L6.10254 4.41177L6.10254 3.52942L7.84613 3.52942L7.84613 4.41177Z" fill="#FFACD6"/>
<path fill-rule="evenodd" clip-rule="evenodd" d="M5.23068 5.2941L4.35889 5.2941L4.35889 4.41174L5.23068 4.41174L5.23068 5.2941Z" fill="#FFACD6"/>
<path fill-rule="evenodd" clip-rule="evenodd" d="M13.0769 5.2941L12.2051 5.2941L12.2051 4.41174L13.0769 4.41174L13.0769 5.2941Z" fill="#FFACD6"/>
<path fill-rule="evenodd" clip-rule="evenodd" d="M9.58957 5.2941L8.71777 5.2941L8.71777 4.41174L9.58957 4.41174L9.58957 5.2941Z" fill="#FFACD6"/>
<path fill-rule="evenodd" clip-rule="evenodd" d="M10.4616 6.17642L9.58984 6.17642L9.58984 5.29407L10.4616 5.29407L10.4616 6.17642Z" fill="#FFACD6"/>
<path fill-rule="evenodd" clip-rule="evenodd" d="M7.84592 6.17642L6.97412 6.17642L6.97412 5.29407L7.84592 5.29407L7.84592 6.17642Z" fill="#FFACD6"/>
<path fill-rule="evenodd" clip-rule="evenodd" d="M28.7692 7.94119L26.1538 7.94119L26.1538 7.05884L28.7692 7.05884L28.7692 7.94119Z" fill="#FFACD6"/>
<path fill-rule="evenodd" clip-rule="evenodd" d="M30.5126 8.82351L28.769 8.82351L28.769 7.94116L30.5126 7.94116L30.5126 8.82351Z" fill="#FFACD6"/>
<path fill-rule="evenodd" clip-rule="evenodd" d="M27.0258 8.82351L25.2822 8.82351L25.2822 7.94116L27.0258 7.94116L27.0258 8.82351Z" fill="#FFACD6"/>
<path fill-rule="evenodd" clip-rule="evenodd" d="M23.5385 8.82351L21.7949 8.82351L21.7949 7.94116L23.5385 7.94116L23.5385 8.82351Z" fill="#FFACD6"/>
<path fill-rule="evenodd" clip-rule="evenodd" d="M24.4104 9.70584L23.5386 9.70584L23.5386 8.82349L24.4104 8.82349L24.4104 9.70584Z" fill="#FFACD6"/>
<path fill-rule="evenodd" clip-rule="evenodd" d="M22.6667 10.5883L21.7949 10.5883L21.7949 9.70593L22.6667 9.70593L22.6667 10.5883Z" fill="#FFACD6"/>
<path fill-rule="evenodd" clip-rule="evenodd" d="M27.0256 10.5883L26.1538 10.5883L26.1538 9.70593L27.0256 9.70593L27.0256 10.5883Z" fill="#FFACD6"/>
<path fill-rule="evenodd" clip-rule="evenodd" d="M25.282 11.4706L24.4102 11.4706L24.4102 10.5883L25.282 10.5883L25.282 11.4706Z" fill="#FFACD6"/>
<path fill-rule="evenodd" clip-rule="evenodd" d="M30.5129 9.70584L29.6411 9.70584L29.6411 8.82349L30.5129 8.82349L30.5129 9.70584Z" fill="#FFACD6"/>
<path fill-rule="evenodd" clip-rule="evenodd" d="M29.6408 10.5883L28.769 10.5883L28.769 9.70593L29.6408 9.70593L29.6408 10.5883Z" fill="#FFACD6"/>
<path fill-rule="evenodd" clip-rule="evenodd" d="M10.4616 17.647L7.84619 17.647L7.84619 16.7646L10.4616 16.7646L10.4616 17.647Z" fill="#F33283"/>
<path fill-rule="evenodd" clip-rule="evenodd" d="M13.9487 17.647L12.2051 17.647L12.2051 16.7646L13.9487 16.7646L13.9487 17.647Z" fill="#F33283"/>
<path fill-rule="evenodd" clip-rule="evenodd" d="M14.8205 19.4118L13.9487 19.4118L13.9487 18.5294L14.8205 18.5294L14.8205 19.4118Z" fill="#FF80B5"/>
<path fill-rule="evenodd" clip-rule="evenodd" d="M13.0769 18.5294L12.2051 18.5294L12.2051 17.6471L13.0769 17.6471L13.0769 18.5294Z" fill="#FF80B5"/>
<path fill-rule="evenodd" clip-rule="evenodd" d="M9.58957 16.7647L8.71777 16.7647L8.71777 15.8823L9.58957 15.8823L9.58957 16.7647Z" fill="#F33283"/>
<path fill-rule="evenodd" clip-rule="evenodd" d="M12.2053 15.8824L11.3335 15.8824L11.3335 15L12.2053 15L12.2053 15.8824Z" fill="#F33283"/>
<path fill-rule="evenodd" clip-rule="evenodd" d="M13.9489 15L13.0771 15L13.0771 14.1177L13.9489 14.1177L13.9489 15Z" fill="#F33283"/>
<path fill-rule="evenodd" clip-rule="evenodd" d="M11.3332 16.7647L10.4614 16.7647L10.4614 15.8823L11.3332 15.8823L11.3332 16.7647Z" fill="#F33283"/>
<path fill-rule="evenodd" clip-rule="evenodd" d="M8.71799 15L7.84619 15L7.84619 14.1177L8.71799 14.1177L8.71799 15Z" fill="#F33283"/>
<path fill-rule="evenodd" clip-rule="evenodd" d="M6.97433 15.8824L6.10254 15.8824L6.10254 15L6.97433 15L6.97433 15.8824Z" fill="#F33283"/>
<path fill-rule="evenodd" clip-rule="evenodd" d="M11.3332 15.8824L10.4614 15.8824L10.4614 15L11.3332 15L11.3332 15.8824Z" fill="#FF80B5"/>
<path fill-rule="evenodd" clip-rule="evenodd" d="M25.282 21.1765L24.4102 21.1765L24.4102 20.2942L25.282 20.2942L25.282 21.1765Z" fill="#FF80B5"/>
</svg>
